<?xml version="1.0" encoding="utf-8"?>
<!-- Generator: Adobe Illustrator 28.3.0, SVG Export Plug-In . SVG Version: 6.00 Build 0)  -->
<svg version="1.1" id="Capa_1" xmlns="http://www.w3.org/2000/svg" xmlns:xlink="http://www.w3.org/1999/xlink" x="0px" y="0px"
	 viewBox="0 0 800 800" style="enable-background:new 0 0 800 800;" xml:space="preserve">
<style type="text/css">
	.st0{fill:#FF0000;}
</style>
<g>
	<path d="M701.9,61.5C657.1,20.1,609.8,0,557.5,0c-61.7,0-118.1,28.3-172.6,55.6c-49,24.6-95.3,47.9-139.7,47.9
		c-33.5,0-63.6-13.3-94.7-42c-10.7-9.9-26.2-12.5-39.6-6.6c-12.5,5.5-20.8,17.4-21.8,30.9c-1.8,4.3-2.8,9.1-2.8,14v663.6
		c0,20.3,16.4,36.7,36.7,36.7s36.7-16.4,36.7-36.7V547.6c27.2,13.4,55.4,20.3,85.5,20.3c0,0,0,0,0,0c61.7,0,118.1-28.3,172.6-55.6
		c49-24.6,95.4-47.8,139.7-47.8c33.5,0,63.6,13.3,94.6,42c10.7,9.9,26.2,12.5,39.6,6.6c13.3-5.8,22-19,22-33.6V88.4
		C713.7,78.2,709.4,68.4,701.9,61.5z M640.3,409.9c-26.4-12.6-53.8-18.7-82.9-18.7c-61.7,0-118.1,28.3-172.6,55.6
		c-49,24.6-95.3,47.8-139.7,47.8h0c-29.2,0-55.9-10.2-82.8-31.8V158.1c26.4,12.6,53.8,18.8,82.9,18.8c61.7,0,118.1-28.3,172.6-55.6
		c49-24.6,95.4-47.9,139.7-47.9c29.3,0,55.9,10.2,82.9,31.8V409.9z"/>
</g>
<g>
	<path class="st0" d="M640.3,409.9c-26.4-12.6-53.8-18.7-82.9-18.7c-61.7,0-118.1,28.3-172.6,55.6c-49,24.6-95.3,47.8-139.7,47.8h0
		c-29.2,0-55.9-10.2-82.8-31.8V158.1c26.4,12.6,53.8,18.8,82.9,18.8c61.7,0,118.1-28.3,172.6-55.6c49-24.6,95.4-47.9,139.7-47.9
		c29.3,0,55.9,10.2,82.9,31.8V409.9z"/>
</g>
</svg>
